# xmcd
#
# Track frame offsets:
#	150
#	14742
#	43810
#
# Disc length: 1171 seconds
#
# Revision: 1
# Processed by: cddbd v1.5.2PL0 Copyright (c) Steve Scherf et al.
# Submitted via: audiograbber 1.83.01
#
DISCID=23049103
DTITLE=Ralphi Rosario - Ralphi Rosario - Take Me Up (Gotta Get Up) (1998)
DYEAR=1998
DGENRE=House
TTITLE0=Take Me Up (Gotta Get Up) (Lego's Radio Edit)
TTITLE1=Take Me Up (Gotta Get Up) (Ralphi's Radio Edit)
TTITLE2=Take Me Up (Gotta Get Up) (Ralphi's Club Mix)
EXTD=
EXTT0=
EXTT1=
EXTT2=
PLAYORDER=
